<svg width="1280" height="760" viewBox="0 0 1280 760" fill="none" xmlns="http://www.w3.org/2000/svg">
  <defs>
    <linearGradient id="bg" x1="640" y1="0" x2="640" y2="760" gradientUnits="userSpaceOnUse">
      <stop stop-color="#0F2118"/>
      <stop offset="1" stop-color="#08120D"/>
    </linearGradient>
    <linearGradient id="header" x1="0" y1="0" x2="1280" y2="90" gradientUnits="userSpaceOnUse">
      <stop stop-color="#10261B"/>
      <stop offset="1" stop-color="#0C1913"/>
    </linearGradient>
    <linearGradient id="panel" x1="50" y1="180" x2="920" y2="700" gradientUnits="userSpaceOnUse">
      <stop stop-color="#133022"/>
      <stop offset="1" stop-color="#10271C"/>
    </linearGradient>
    <linearGradient id="line" x1="0" y1="0" x2="1" y2="0">
      <stop stop-color="#1E4A35"/>
      <stop offset="1" stop-color="#133425"/>
    </linearGradient>
  </defs>

  <rect width="1280" height="760" rx="40" fill="url(#bg)"/>
  <rect width="1280" height="78" fill="url(#header)"/>
  <rect x="0" y="77" width="1280" height="1" fill="#1E4A35"/>

  <circle cx="34" cy="39" r="21" fill="#143224" stroke="#2DD4A8" stroke-opacity="0.45"/>
  <text x="22" y="46" fill="#2DD4A8" font-family="Arial, sans-serif" font-size="22" font-weight="700">AI</text>
  <text x="72" y="44" fill="#F3F6F4" font-family="Arial, sans-serif" font-size="30" font-weight="700">TAO DE THI THEO CV7991</text>
  <circle cx="1098" cy="38" r="8" fill="#0F2118" stroke="#7B8794" stroke-opacity="0.7"/>
  <circle cx="1098" cy="38" r="2" fill="#7B8794"/>
  <text x="1118" y="45" fill="#AEB8C4" font-family="Arial, sans-serif" font-size="18" font-weight="600">Cai dat API Key</text>

  <circle cx="176" cy="142" r="16" fill="#2DD4A8"/>
  <text x="170" y="148" fill="#0C1A14" font-family="Arial, sans-serif" font-size="18" font-weight="700">1</text>
  <text x="206" y="149" fill="#2DD4A8" font-family="Arial, sans-serif" font-size="20" font-weight="700">Thong tin</text>
  <rect x="304" y="141" width="132" height="2" fill="url(#line)"/>

  <circle cx="466" cy="142" r="16" fill="#1A3A2A" stroke="#5C7066" stroke-width="2"/>
  <text x="460" y="148" fill="#7B8794" font-family="Arial, sans-serif" font-size="18" font-weight="700">2</text>
  <text x="492" y="149" fill="#AEB8C4" font-family="Arial, sans-serif" font-size="20">Ma tran</text>
  <rect x="578" y="141" width="126" height="2" fill="url(#line)"/>

  <circle cx="730" cy="142" r="16" fill="#1A3A2A" stroke="#5C7066" stroke-width="2"/>
  <text x="724" y="148" fill="#7B8794" font-family="Arial, sans-serif" font-size="18" font-weight="700">3</text>
  <text x="758" y="149" fill="#AEB8C4" font-family="Arial, sans-serif" font-size="20">Bang dac ta</text>
  <rect x="868" y="141" width="132" height="2" fill="url(#line)"/>

  <circle cx="1028" cy="142" r="16" fill="#1A3A2A" stroke="#5C7066" stroke-width="2"/>
  <text x="1022" y="148" fill="#7B8794" font-family="Arial, sans-serif" font-size="18" font-weight="700">4</text>
  <text x="1054" y="149" fill="#AEB8C4" font-family="Arial, sans-serif" font-size="20">De thi</text>

  <rect x="44" y="204" width="1162" height="436" rx="22" fill="url(#panel)" stroke="#1E4A35"/>
  <circle cx="102" cy="260" r="16" fill="#10241A" stroke="#2DD4A8" stroke-width="2"/>
  <text x="96" y="266" fill="#2DD4A8" font-family="Arial, sans-serif" font-size="18" font-weight="700">1</text>
  <text x="132" y="267" fill="#2DD4A8" font-family="Arial, sans-serif" font-size="24" font-weight="700">Thong tin chung &amp; Upload PPCT</text>

  <text x="84" y="332" fill="#2DD4A8" font-family="Arial, sans-serif" font-size="18" font-weight="600">Mon hoc</text>
  <text x="644" y="332" fill="#2DD4A8" font-family="Arial, sans-serif" font-size="18" font-weight="600">Khoi lop</text>
  <rect x="84" y="350" width="530" height="56" rx="10" fill="#132A1F" stroke="#1E4A35"/>
  <rect x="672" y="350" width="500" height="56" rx="10" fill="#132A1F" stroke="#1E4A35"/>
  <text x="104" y="386" fill="#F8FAFC" font-family="Arial, sans-serif" font-size="22" font-weight="600">-- Chon mon hoc --</text>
  <text x="692" y="386" fill="#F8FAFC" font-family="Arial, sans-serif" font-size="22" font-weight="600">-- Chon khoi lop --</text>

  <text x="84" y="450" fill="#2DD4A8" font-family="Arial, sans-serif" font-size="18" font-weight="600">Loai kiem tra (Auto Filter)</text>
  <text x="644" y="450" fill="#2DD4A8" font-family="Arial, sans-serif" font-size="18" font-weight="600">Thoi gian (phut)</text>
  <rect x="84" y="468" width="530" height="56" rx="10" fill="#132A1F" stroke="#1E4A35"/>
  <rect x="672" y="468" width="500" height="56" rx="10" fill="#132A1F" stroke="#1E4A35"/>
  <text x="104" y="504" fill="#F8FAFC" font-family="Arial, sans-serif" font-size="22" font-weight="600">Giua ky 1</text>
  <circle cx="686" cy="496" r="9" fill="#10241A" stroke="#94A3B8" stroke-opacity="0.7" stroke-width="2"/>
  <path d="M686 490V496H691" stroke="#94A3B8" stroke-width="2" stroke-linecap="round" stroke-linejoin="round"/>
  <text x="724" y="504" fill="#F8FAFC" font-family="Arial, sans-serif" font-size="22" font-weight="600">45</text>

  <rect x="84" y="556" width="1088" height="60" rx="12" fill="#10241A" stroke="#2A5E42" stroke-dasharray="8 8"/>
  <path d="M492 586V571" stroke="#E2E8F0" stroke-width="2.5" stroke-linecap="round"/>
  <path d="M484 579L492 571L500 579" stroke="#E2E8F0" stroke-width="2.5" stroke-linecap="round" stroke-linejoin="round"/>
  <path d="M484 586V592C484 594.209 485.791 596 488 596H496C498.209 596 500 594.209 500 592V586" stroke="#E2E8F0" stroke-width="2.5" stroke-linecap="round"/>
  <text x="514" y="591" fill="#D7DDE6" font-family="Arial, sans-serif" font-size="18" font-weight="600">Upload File PPCT (.pdf, .docx)</text>
</svg>